<svg width="32" height="33" viewBox="0 0 32 33" fill="none" xmlns="http://www.w3.org/2000/svg">
<rect y="0.0126953" width="32" height="32" rx="16" fill="white"/>
<rect x="4" y="4.0127" width="24" height="24" rx="12" fill="#999999"/>
<path d="M11.0611 23.0127V21.0184L15.7209 16.7037C16.1172 16.3202 16.4496 15.9751 16.718 15.6682C16.9908 15.3614 17.1974 15.061 17.3381 14.767C17.4787 14.4687 17.549 14.1469 17.549 13.8018C17.549 13.4182 17.4616 13.088 17.2869 12.811C17.1122 12.5297 16.8736 12.3145 16.571 12.1654C16.2685 12.012 15.9254 11.9353 15.5419 11.9353C15.1413 11.9353 14.7919 12.0162 14.4936 12.1782C14.1953 12.3401 13.9652 12.5724 13.8033 12.8749C13.6413 13.1775 13.5604 13.5376 13.5604 13.9552H10.9332C10.9332 13.0986 11.1271 12.355 11.5149 11.7243C11.9027 11.0937 12.446 10.6057 13.1449 10.2606C13.8438 9.91539 14.6491 9.74281 15.5611 9.74281C16.4986 9.74281 17.3146 9.909 18.0092 10.2414C18.7081 10.5695 19.2514 11.0255 19.6392 11.6093C20.027 12.1931 20.2209 12.8621 20.2209 13.6164C20.2209 14.1107 20.1229 14.5986 19.9268 15.0802C19.7351 15.5617 19.392 16.0965 18.8977 16.6846C18.4034 17.2684 17.7067 17.9694 16.8075 18.7876L14.8963 20.6604V20.7499H20.3935V23.0127H11.0611Z" fill="white"/>
</svg>
